<svg id="Shizuoka.php Logo" data-name="shizuoka.php Logo" xmlns="http://www.w3.org/2000/svg" xmlns:xlink="http://www.w3.org/1999/xlink" viewBox="0 0 372.68 188.63"><defs><style>.cls-1{fill:none;}.cls-2{fill:#7377ab;}.cls-3{fill:#d6d6d6;}.cls-4{fill:#231815;}.cls-5{clip-path:url(#clip-path);}.cls-6{fill:url(#名称未設定グラデーション_3);}.cls-7{clip-path:url(#clip-path-2);}.cls-8{clip-path:url(#clip-path-3);}.cls-9{fill:#fff;}</style><clipPath id="clip-path" transform="translate(-45.63 -51.45)"><path id="SVGID" class="cls-1" d="M123.59,106.76c0,30.55,47.08,55.32,105.15,55.32h0c58.08,0,105.16-24.77,105.16-55.32h0c0-30.55-47.08-55.31-105.16-55.31h0c-58.07,0-105.15,24.76-105.15,55.31"/></clipPath><radialGradient id="名称未設定グラデーション_3" cx="0.93" cy="769.01" r="0.3" gradientTransform="matrix(453.82, 0, 0, -453.82, -235.32, 349064.31)" gradientUnits="userSpaceOnUse"><stop offset="0" stop-color="#acafd0"/><stop offset="0.3" stop-color="#acafd0"/><stop offset="0.75" stop-color="#454a84"/><stop offset="1" stop-color="#454a84"/></radialGradient><clipPath id="clip-path-2" transform="translate(-45.63 -51.45)"><path id="SVGID-2" data-name="SVGID" class="cls-2" d="M123.59,106.76c0,30.55,47.08,55.32,105.15,55.32h0c58.08,0,105.16-24.77,105.16-55.32h0c0-30.55-47.08-55.31-105.16-55.31h0c-58.07,0-105.15,24.76-105.15,55.31"/></clipPath><clipPath id="clip-path-3" transform="translate(-45.63 -51.45)"><path id="SVGID-3" data-name="SVGID" class="cls-3" d="M182.72,78.39c0,13.37,20.61,24.21,46,24.21h0c25.42,0,46-10.84,46-24.21h0c0-13.37-20.61-24.21-46-24.21h0c-25.41,0-46,10.84-46,24.21"/></clipPath></defs><title>logo-shizuoka.php</title><path class="cls-4" d="M45.63,230.73,46.8,224H63.91c3.15,0,5-1.52,5.55-4.67s-.76-4.67-3.92-4.67H58.89c-7.6,0-10.69-3.8-9.35-11.39S55.32,192,62.92,192H81.08l-1.23,6.77H63.27q-4.56,0-5.43,4.56c-.53,3,.81,4.55,3.79,4.55h6.6c7.59,0,10.92,3.86,9.58,11.45s-6,11.45-13.55,11.45Z" transform="translate(-45.63 -51.45)"/><path class="cls-4" d="M102.05,230.73,105,214c.7-4-.65-5.61-4.62-5.61H93.87L90,230.73H82.13L89,192h7.83L95,202.23h8.12c8.23,0,11.15,3.56,9.69,11.79l-2.92,16.71Z" transform="translate(-45.63 -51.45)"/><path class="cls-4" d="M116.88,230.73l5-28.5h7.83l-5,28.5ZM122.43,199l1.28-7.07h7.83L130.26,199Z" transform="translate(-45.63 -51.45)"/><path class="cls-4" d="M129.91,230.73l1-5.73,19.27-16.82H134.34l1.06-6h25.81L160.16,208l-19.57,16.82h17.06l-1,6Z" transform="translate(-45.63 -51.45)"/><path class="cls-4" d="M173.36,230.73c-8.24,0-11.27-3.56-9.81-11.8l3-16.7h7.82l-3,16.76c-.7,4,.65,5.61,4.62,5.61h6.25l4-22.37H194l-5,28.5Z" transform="translate(-45.63 -51.45)"/><path class="cls-4" d="M210.27,231.31c-9.75,0-14.89-4.5-13-14.83s8.46-14.84,18.22-14.84,14.89,4.5,13.08,14.84S220,231.31,210.27,231.31Zm10.34-14.83c1-5.84-1-8.76-6.19-8.76s-8.24,2.92-9.23,8.76.93,8.76,6.13,8.76S219.56,222.32,220.61,216.48Z" transform="translate(-45.63 -51.45)"/><path class="cls-4" d="M250.63,230.73,242,216.89l-2.39,13.84h-7.83L238.6,192h7.82l-3.91,21.9,12.32-11.62h9.11L250,215l10,15.77Z" transform="translate(-45.63 -51.45)"/><path class="cls-4" d="M275.86,230.73c-9.35,0-13.44-4.91-11.74-14.25s7.42-14.25,16.76-14.25h14.6l-5,28.5Zm10.74-22.6h-4.67c-5.78,0-8.82,2.57-9.81,8.35s1.05,8.29,6.83,8.29h4.68Z" transform="translate(-45.63 -51.45)"/><path class="cls-4" d="M299.8,230.73l1.41-8.18h8.11l-1.4,8.18Z" transform="translate(-45.63 -51.45)"/><path class="cls-4" d="M315.57,240.07l6.72-37.84h14.6c9.34,0,13.37,4.9,11.74,14.25s-7.42,14.25-16.76,14.25h-6.78l-1.69,9.34Zm18.17-31.89h-4.68l-3,16.65h4.67c5.78,0,8.82-2.57,9.87-8.35S339.52,208.18,333.74,208.18Z" transform="translate(-45.63 -51.45)"/><path class="cls-4" d="M371.76,230.73,374.68,214c.7-4-.64-5.61-4.61-5.61h-6.49l-3.91,22.37h-7.83L358.68,192h7.82l-1.81,10.28h8.12c8.23,0,11.15,3.56,9.69,11.79l-2.92,16.71Z" transform="translate(-45.63 -51.45)"/><path class="cls-4" d="M384.9,240.07l6.72-37.84h14.6c9.34,0,13.37,4.9,11.74,14.25s-7.42,14.25-16.77,14.25h-6.77l-1.69,9.34Zm18.16-31.89h-4.67l-3,16.65h4.67c5.79,0,8.82-2.57,9.87-8.35S408.85,208.18,403.06,208.18Z" transform="translate(-45.63 -51.45)"/><g class="cls-5"><path id="path3462" class="cls-6" d="M123.59,106.76c0,30.55,47.08,55.32,105.15,55.32h0c58.08,0,105.16-24.77,105.16-55.32h0c0-30.55-47.08-55.31-105.16-55.31h0c-58.07,0-105.15,24.76-105.15,55.31" transform="translate(-45.63 -51.45)"/></g><path id="SVGID-4" data-name="SVGID" class="cls-2" d="M123.59,106.76c0,30.55,47.08,55.32,105.15,55.32h0c58.08,0,105.16-24.77,105.16-55.32h0c0-30.55-47.08-55.31-105.16-55.31h0c-58.07,0-105.15,24.76-105.15,55.31" transform="translate(-45.63 -51.45)"/><g class="cls-7"><path id="path3462-2" data-name="path3462" class="cls-2" d="M123.59,106.76c0,30.55,47.08,55.32,105.15,55.32h0c58.08,0,105.16-24.77,105.16-55.32h0c0-30.55-47.08-55.31-105.16-55.31h0c-58.07,0-105.15,24.76-105.15,55.31" transform="translate(-45.63 -51.45)"/></g><path id="SVGID-5" data-name="SVGID" class="cls-3" d="M182.72,78.39c0,13.37,20.61,24.21,46,24.21h0c25.42,0,46-10.84,46-24.21h0c0-13.37-20.61-24.21-46-24.21h0c-25.41,0-46,10.84-46,24.21" transform="translate(-45.63 -51.45)"/><g class="cls-8"><path id="path3462-3" data-name="path3462" class="cls-3" d="M182.72,78.39c0,13.37,20.61,24.21,46,24.21h0c25.42,0,46-10.84,46-24.21h0c0-13.37-20.61-24.21-46-24.21h0c-25.41,0-46,10.84-46,24.21" transform="translate(-45.63 -51.45)"/></g><path id="path3474" class="cls-9" d="M228.74,79C241,79,251,74,251,67.75S241,56.5,228.74,56.5s-22.2,5-22.2,11.25S216.48,79,228.74,79" transform="translate(-45.63 -51.45)"/></svg>
